<?xml version="1.0" encoding="utf-8"?>
<!-- Generator: Adobe Illustrator 25.0.0, SVG Export Plug-In . SVG Version: 6.00 Build 0)  -->
<svg version="1.1" id="Capa_1" xmlns="http://www.w3.org/2000/svg" xmlns:xlink="http://www.w3.org/1999/xlink" x="0px" y="0px"
	 viewBox="0 0 600 400" style="enable-background:new 0 0 600 400;" xml:space="preserve">
<style type="text/css">
	.st0{font-family:'AgencyFB-Bold';}
	.st1{font-size:119.0242px;}
	.st2{letter-spacing:5;}
</style>
<g>
	<text transform="matrix(1 0 0 1 10.9304 246.1147)" class="st0 st1 st2">CHILACUILES</text>
	<path d="M85.02,146.19c3.3-5.58,7.8-10.88,14.04-15.95C144.76,93.08,220.07,70.9,300.51,70.9s155.75,22.19,201.46,59.34
		c6.23,5.07,10.73,10.37,14.04,15.95h21.74c-4.35-10.93-11.55-21.43-23.45-31.1c-49.08-39.9-129-63.72-213.78-63.72
		s-164.7,23.82-213.78,63.72c-11.9,9.68-19.1,20.17-23.45,31.1H85.02z"/>
	<path d="M517.76,254.49c-3.58,7.35-8.93,14.23-17.06,20.71c-42.97,34.26-115.94,53.91-200.19,53.91
		c-84.25,0-157.22-19.65-200.19-53.91c-8.13-6.49-13.49-13.36-17.06-20.71H62.15c4.34,12.72,12.1,24.9,26,35.98
		c47.05,37.51,122.47,58.17,212.37,58.17c89.9,0,165.32-20.66,212.36-58.17c13.89-11.08,21.66-23.26,26-35.98H517.76z"/>
</g>
</svg>
