<?xml version="1.0" encoding="utf-8"?>
<!-- Generator: Adobe Illustrator 25.0.0, SVG Export Plug-In . SVG Version: 6.00 Build 0)  -->
<svg version="1.1" id="Capa_1" xmlns="http://www.w3.org/2000/svg" xmlns:xlink="http://www.w3.org/1999/xlink" x="0px" y="0px"
	 viewBox="0 0 600 400" style="enable-background:new 0 0 600 400;" xml:space="preserve">
<style type="text/css">
	.st0{enable-background:new    ;}
	.st1{fill:#FFFFFF;}
</style>
<g class="st0">
	<path class="st1" d="M61.1,237.8c0,5.5-2.8,8.3-8.3,8.3H24.5c-5.4,0-8.1-2.8-8.1-8.3v-74.3c0-5.6,2.7-8.4,8.1-8.4h28.4
		c5.5,0,8.3,2.8,8.3,8.4v21.3H47.6v-18H30v67.6h17.6v-19.1h13.5V237.8z"/>
	<path class="st1" d="M122.6,246.1h-13.7v-40.8H90.4v40.8H76.8v-91h13.6v37.5h18.4v-37.5h13.7V246.1z"/>
	<path class="st1" d="M152.2,246.1h-13.6v-91h13.6V246.1z"/>
	<path class="st1" d="M204.1,246.1h-35.7v-91H182V234h22.1V246.1z"/>
	<path class="st1" d="M263.3,246.1h-13.5l-2.7-17.3h-17l-2.7,17.3h-13.4v-0.2l17.6-90.8h14.3L263.3,246.1z M245.1,217.2l-6.6-41
		l-6.7,41H245.1z"/>
	<path class="st1" d="M320.6,237.8c0,5.5-2.8,8.3-8.3,8.3H284c-5.4,0-8.1-2.8-8.1-8.3v-74.3c0-5.6,2.7-8.4,8.1-8.4h28.4
		c5.5,0,8.3,2.8,8.3,8.4v21.3h-13.5v-18h-17.6v67.6h17.6v-19.1h13.5V237.8z"/>
	<path class="st1" d="M381.8,237.8c0,5.5-2.8,8.3-8.4,8.3h-28.9c-5.5,0-8.3-2.8-8.3-8.3v-82.6h13.6v79.3h18.3v-79.3h13.6V237.8z"/>
	<path class="st1" d="M411.6,246.1H398v-91h13.6V246.1z"/>
	<path class="st1" d="M463.5,246.1h-35.7v-91h13.6V234h22.1V246.1z"/>
	<path class="st1" d="M514.3,246.1h-37.7v-91h37.4v12h-23.8v26.6h20.5v11.8h-20.5v28.5h24.1V246.1z"/>
	<path class="st1" d="M572.2,237.8c0,5.5-2.8,8.3-8.3,8.3h-27.4c-5.5,0-8.2-2.8-8.2-8.3v-21.7H542v18.5h16.6v-17.8L531.3,191
		c-2-1.9-3-4.3-3-7.3v-20.2c0-5.6,2.7-8.4,8.2-8.4h27.4c5.5,0,8.3,2.8,8.3,8.3v20.3h-13.6v-17.1H542v16.4l27.3,25.7
		c2,1.9,3,4.3,3,7.4V237.8z"/>
</g>
<path class="st1" d="M85,146.2c3.3-5.6,7.8-10.9,14-15.9c45.7-37.2,121-59.3,201.5-59.3S456.3,93.1,502,130.2
	c6.2,5.1,10.7,10.4,14,15.9h21.7c-4.3-10.9-11.5-21.4-23.5-31.1c-49.1-39.9-129-63.7-213.8-63.7S135.8,75.2,86.7,115.1
	c-11.9,9.7-19.1,20.2-23.5,31.1H85z"/>
<path class="st1" d="M517.8,254.5c-3.6,7.3-8.9,14.2-17.1,20.7c-43,34.3-115.9,53.9-200.2,53.9s-157.2-19.6-200.2-53.9
	c-8.1-6.5-13.5-13.4-17.1-20.7H62.2c4.3,12.7,12.1,24.9,26,36c47,37.5,122.5,58.2,212.4,58.2s165.3-20.7,212.4-58.2
	c13.9-11.1,21.7-23.3,26-36L517.8,254.5L517.8,254.5z"/>
</svg>
